<?xml version="1.0" standalone="no"?>
<!DOCTYPE svg PUBLIC "-//W3C//DTD SVG 20010904//EN"
 "http://www.w3.org/TR/2001/REC-SVG-20010904/DTD/svg10.dtd">
<svg version="1.0" xmlns="http://www.w3.org/2000/svg"
 width="512.000000pt" height="512.000000pt" viewBox="0 0 512.000000 512.000000"
 preserveAspectRatio="xMidYMid meet">
<metadata>
Created by potrace 1.16, written by Peter Selinger 2001-2019
</metadata>
<g transform="translate(0.000000,512.000000) scale(0.100000,-0.100000)"
fill="#000000" stroke="none">
<path d="M696 4069 c-107 -17 -186 -115 -186 -229 0 -119 78 -211 195 -230 81
-13 3618 -13 3700 0 160 26 243 196 167 341 -36 69 -88 106 -167 119 -74 12
-3637 11 -3709 -1z m3760 -84 c48 -28 84 -91 84 -145 0 -54 -36 -117 -84 -145
l-43 -25 -1858 0 -1858 0 -43 25 c-48 28 -84 91 -84 147 0 52 40 119 86 145
l39 23 1859 0 1859 0 43 -25z"/>
<path d="M661 2786 c-49 -18 -111 -74 -132 -120 -24 -54 -25 -148 0 -202 23
-49 88 -107 140 -122 55 -17 3717 -17 3772 0 52 15 113 68 138 121 27 55 28
146 2 203 -23 49 -88 107 -140 122 -57 18 -3732 16 -3780 -2z m3775 -65 c23
-10 54 -36 70 -57 25 -32 29 -47 29 -99 0 -52 -4 -67 -29 -99 -16 -21 -47 -47
-70 -57 -40 -18 -105 -19 -1881 -19 -1776 0 -1841 1 -1881 19 -23 10 -54 36
-70 57 -42 54 -42 144 0 198 16 21 47 47 70 57 40 18 105 19 1881 19 1776 0
1841 -1 1881 -19z"/>
<path d="M661 1506 c-49 -18 -111 -74 -132 -120 -24 -54 -25 -148 0 -202 23
-49 88 -107 140 -122 55 -17 3717 -17 3772 0 52 15 113 68 138 121 27 55 28
146 2 203 -23 49 -88 107 -140 122 -57 18 -3732 16 -3780 -2z m3775 -65 c23
-10 54 -36 70 -57 25 -32 29 -47 29 -99 0 -52 -4 -67 -29 -99 -16 -21 -47 -47
-70 -57 -40 -18 -105 -19 -1881 -19 -1776 0 -1841 1 -1881 19 -23 10 -54 36
-70 57 -25 32 -29 47 -29 99 0 52 4 67 29 99 16 21 47 47 70 57 40 18 105 19
1881 19 1776 0 1841 -1 1881 -19z"/>
</g>
</svg>
